<svg xmlns="http://www.w3.org/2000/svg" width="400" height="400" viewBox="0 0 400 400" version="1.1"><path d="M 176 1.520 C 138.731 6.144, 103.015 21.271, 74 44.719 C 65.145 51.875, 48.336 69.018, 41.857 77.500 C 14.977 112.694, 0 156.527, 0 200 C 0 245.082, 16.189 290.697, 44.719 326 C 51.875 334.855, 69.018 351.664, 77.500 358.143 C 88.240 366.346, 100.683 373.961, 113.213 379.999 C 181.484 412.902, 261.784 404.516, 322.500 358.143 C 330.982 351.664, 348.125 334.855, 355.281 326 C 378.986 296.667, 395.743 256.501, 398.608 222.145 C 398.985 217.630, 399.677 213.700, 400.146 213.410 C 400.616 213.119, 401 206.582, 401 198.882 C 401 191.182, 400.614 185.121, 400.141 185.413 C 399.669 185.704, 398.977 182.277, 398.603 177.795 C 395.874 145.068, 380.341 106.565, 358.143 77.500 C 351.664 69.018, 334.855 51.875, 326 44.719 C 284.124 10.877, 228.857 -5.039, 176 1.520 M 197.151 76.750 C 194.985 80.463, 187.325 93.625, 180.129 106 L 167.044 128.500 201.022 128.763 C 219.710 128.908, 250.413 128.908, 269.250 128.763 L 303.500 128.500 288.500 119.852 C 238.685 91.133, 201.790 70, 201.464 70 C 201.257 70, 199.316 73.037, 197.151 76.750 M 138.980 104.099 C 111.216 120.035, 88.584 133.419, 88.686 133.843 C 88.922 134.824, 120.976 190.259, 121.853 191.203 C 122.211 191.589, 127.661 183.039, 133.962 172.203 C 178.034 96.409, 189.992 75.659, 189.743 75.410 C 189.587 75.254, 166.744 88.164, 138.980 104.099 M 245 135.481 C 245 135.904, 259.155 160.430, 299.261 229.500 C 305.329 239.950, 310.903 249.388, 311.647 250.473 C 312.791 252.141, 313 243.389, 313 193.723 L 313 135 279 135 C 260.300 135, 245 135.217, 245 135.481 M 87 204.277 L 87 263 121 263 C 139.700 263, 155 262.796, 155 262.546 C 155 261.904, 90.828 151.169, 88.345 147.527 C 87.211 145.865, 87 154.780, 87 204.277 M 180 165.881 L 161.500 176.624 161.500 199.019 L 161.500 221.415 180.427 232.247 C 190.837 238.204, 199.846 242.948, 200.448 242.789 C 201.049 242.630, 209.957 237.775, 220.243 232 L 238.945 221.500 238.941 199 L 238.937 176.500 219.970 165.750 C 209.539 159.838, 200.440 155.031, 199.752 155.069 C 199.063 155.107, 190.175 159.973, 180 165.881 M 0.397 200 C 0.397 207.975, 0.553 211.238, 0.743 207.250 C 0.932 203.262, 0.932 196.738, 0.743 192.750 C 0.553 188.762, 0.397 192.025, 0.397 200 M 261.327 233.762 C 252.510 249.018, 237.877 274.325, 228.810 290 C 207.492 326.855, 209.223 323.459, 212.682 321.639 C 216.079 319.852, 308.988 266.462, 310.707 265.309 C 311.564 264.735, 307.058 256.178, 295.162 235.789 C 285.949 219.998, 278.174 206.841, 277.885 206.551 C 277.595 206.262, 270.144 218.507, 261.327 233.762 M 90.550 269.833 C 91.073 270.291, 113.775 283.399, 141 298.962 C 168.225 314.526, 191.906 328.103, 193.624 329.134 C 196.082 330.608, 196.960 330.740, 197.740 329.754 C 198.451 328.853, 228.281 277.654, 232.699 269.750 C 232.929 269.337, 200.826 269, 161.359 269 C 121.892 269, 90.027 269.375, 90.550 269.833" stroke="none" fill="#1e2dca" fill-rule="evenodd"/><path d="M 0.108 93.250 C 0.203 174.840, 0.380 185.187, 1.517 176 C 5.942 140.278, 19.852 106.312, 41.857 77.500 C 48.336 69.018, 65.145 51.875, 74 44.719 C 103.015 21.271, 138.731 6.144, 176 1.520 C 185.196 0.379, 174.920 0.203, 93.250 0.108 L 0 0 0.108 93.250 M 224 1.520 C 261.269 6.144, 296.985 21.271, 326 44.719 C 334.855 51.875, 351.664 69.018, 358.143 77.500 C 380.148 106.312, 394.058 140.278, 398.483 176 C 399.620 185.187, 399.797 174.840, 399.892 93.250 L 400 0 306.750 0.108 C 225.080 0.203, 214.804 0.379, 224 1.520 M 197.151 76.750 C 194.985 80.463, 187.325 93.625, 180.129 106 L 167.044 128.500 201.022 128.763 C 219.710 128.908, 250.413 128.908, 269.250 128.763 L 303.500 128.500 288.500 119.852 C 238.685 91.133, 201.790 70, 201.464 70 C 201.257 70, 199.316 73.037, 197.151 76.750 M 138.980 104.099 C 111.216 120.035, 88.584 133.419, 88.686 133.843 C 88.922 134.824, 120.976 190.259, 121.853 191.203 C 122.211 191.589, 127.661 183.039, 133.962 172.203 C 178.034 96.409, 189.992 75.659, 189.743 75.410 C 189.587 75.254, 166.744 88.164, 138.980 104.099 M 245 135.481 C 245 135.904, 259.155 160.430, 299.261 229.500 C 305.329 239.950, 310.903 249.388, 311.647 250.473 C 312.791 252.141, 313 243.389, 313 193.723 L 313 135 279 135 C 260.300 135, 245 135.217, 245 135.481 M 87 204.277 L 87 263 121 263 C 139.700 263, 155 262.796, 155 262.546 C 155 261.904, 90.828 151.169, 88.345 147.527 C 87.211 145.865, 87 154.780, 87 204.277 M 180 165.881 L 161.500 176.624 161.500 199.019 L 161.500 221.415 180.427 232.247 C 190.837 238.204, 199.846 242.948, 200.448 242.789 C 201.049 242.630, 209.957 237.775, 220.243 232 L 238.945 221.500 238.941 199 L 238.937 176.500 219.970 165.750 C 209.539 159.838, 200.440 155.031, 199.752 155.069 C 199.063 155.107, 190.175 159.973, 180 165.881 M 261.327 233.762 C 252.510 249.018, 237.877 274.325, 228.810 290 C 207.492 326.855, 209.223 323.459, 212.682 321.639 C 216.079 319.852, 308.988 266.462, 310.707 265.309 C 311.564 264.735, 307.058 256.178, 295.162 235.789 C 285.949 219.998, 278.174 206.841, 277.885 206.551 C 277.595 206.262, 270.144 218.507, 261.327 233.762 M 0.108 306.750 L 0 400 93.250 399.892 C 174.920 399.797, 185.196 399.621, 176 398.480 C 140.314 394.052, 106.254 380.104, 77.500 358.143 C 69.018 351.664, 51.875 334.855, 44.719 326 C 21.230 296.934, 6.137 261.299, 1.517 224 C 0.380 214.813, 0.203 225.160, 0.108 306.750 M 398.606 222.176 C 395.743 256.499, 378.977 296.678, 355.281 326 C 348.125 334.855, 330.982 351.664, 322.500 358.143 C 293.746 380.104, 259.686 394.052, 224 398.480 C 214.804 399.621, 225.080 399.797, 306.750 399.892 L 400 400 400 307 C 400 255.850, 399.840 214, 399.644 214 C 399.448 214, 398.981 217.679, 398.606 222.176 M 90.550 269.833 C 91.073 270.291, 113.775 283.399, 141 298.962 C 168.225 314.526, 191.906 328.103, 193.624 329.134 C 196.082 330.608, 196.960 330.740, 197.740 329.754 C 198.451 328.853, 228.281 277.654, 232.699 269.750 C 232.929 269.337, 200.826 269, 161.359 269 C 121.892 269, 90.027 269.375, 90.550 269.833" stroke="none" fill="#f9fafb" fill-rule="evenodd"/></svg>